<svg width="14" height="14" fill="none" xmlns="http://www.w3.org/2000/svg"><g clip-path="url(#clip0_1354:8590)" fill="#333333"><path d="M13.5 6.50001H5.429C5.15786 5.43466 4.0744 4.79083 3.00902 5.06197 2.3025 5.2418 1.75081 5.79349 1.57099 6.50001H.500009C.223857 6.50001 0 6.72387 0 7.00002 0 7.27617.223857 7.5.500009 7.5H1.57101C1.84216 8.56535 2.92561 9.20918 3.99099 8.93803 4.69752 8.75821 5.24921 8.20652 5.42903 7.5H13.5C13.7761 7.5 14 7.27614 14 6.99999 14 6.72384 13.7761 6.50001 13.5 6.50001zM3.50001 8.00001C2.94773 8.00001 2.50002 7.55229 2.50002 7.00002 2.50002 6.44774 2.94773 6.00003 3.50001 6.00003 4.05228 6.00003 4.5 6.44774 4.5 7.00002 4.5 7.55229 4.05228 8.00001 3.50001 8.00001zM13.5 1.4997H11.929C11.6579.434353 10.5744-.209475 9.50903.0616675 8.8025.241492 8.25081.793181 8.07099 1.4997H.500009C.223857 1.4997 0 1.72356 0 1.99971 0 2.27586.223857 2.49972.500009 2.49972H8.07099C8.34213 3.56507 9.42559 4.2089 10.491 3.93776 11.1975 3.75793 11.7492 3.20624 11.929 2.49972H13.5C13.7761 2.49972 14 2.27586 14 1.99971 14 1.72356 13.7761 1.4997 13.5 1.4997zM10 2.9997C9.44774 2.9997 9.00002 2.55199 9.00002 1.99971 9.00002 1.44744 9.44774.999723 10 .999723 10.5523.999723 11 1.44744 11 1.99971 11 2.55199 10.5523 2.9997 10 2.9997zM13.5 11.5H10.929C10.6578 10.4347 9.57439 9.79083 8.50901 10.062 7.80248 10.2418 7.2508 10.7935 7.07097 11.5H.500009C.223857 11.5 0 11.7239 0 12 0 12.2761.223857 12.5.500009 12.5H7.071C7.34214 13.5654 8.4256 14.2092 9.49098 13.9381 10.1975 13.7582 10.7492 13.2065 10.929 12.5H13.5C13.7761 12.5 14 12.2762 14 12 14 11.7238 13.7761 11.5 13.5 11.5zM8.99999 13C8.44772 13 8 12.5523 8 12 8 11.4477 8.44772 11 8.99999 11 9.55227 11 9.99998 11.4477 9.99998 12 9.99998 12.5523 9.5523 13 8.99999 13z"/></g><defs><clipPath id="clip0_1354:8590"><path fill="#fff" d="M0 0H14V14H0z"/></clipPath></defs></svg>