<svg width="14" height="10" fill="none" xmlns="http://www.w3.org/2000/svg"><path d="M13.5625 1.06248H.437525C.196015 1.06248.0000362396.866462.0000362396.624989.0000362396.383479.196052.1875.437525.1875H13.5625C13.804.1875 14 .383516 14 .624989 14 .866462 13.804 1.06248 13.5625 1.06248zM.437525 4.5625H13.5625C13.804 4.5625 14 4.75852 14 4.99999 14 5.24146 13.804 5.43748 13.5625 5.43748H.437525C.196015 5.43748.0000362396 5.24146.0000362396 4.99999.0000362396 4.75852.196015 4.5625.437525 4.5625zM.437521 8.9375H9.18751C9.42902 8.9375 9.625 9.13352 9.625 9.37499 9.625 9.6165 9.42899 9.81248 9.18751 9.81248H.437521C.196012 9.81248.0000324249 9.61646.0000324249 9.37499-.0000038147 9.13348.196012 8.9375.437521 8.9375z" fill="#333333"/></svg>